<?xml version="1.0" standalone="no"?>
<!DOCTYPE svg PUBLIC "-//W3C//DTD SVG 20010904//EN"
 "http://www.w3.org/TR/2001/REC-SVG-20010904/DTD/svg10.dtd">
<svg version="1.0" xmlns="http://www.w3.org/2000/svg"
 width="2395.000000pt" height="3216.000000pt" viewBox="0 0 2395.000000 3216.000000"
 preserveAspectRatio="xMidYMid meet">

<g transform="translate(0.000000,3216.000000) scale(0.100000,-0.100000)"
fill="#000000" stroke="none">
<path d="M11600 32154 c-374 -15 -710 -39 -1025 -75 -2675 -300 -5185 -1493
-7089 -3368 -418 -413 -719 -750 -1071 -1202 -830 -1066 -1510 -2370 -1904
-3653 -622 -2022 -675 -4166 -156 -6214 42 -163 77 -298 80 -300 2 -3 71 60
153 139 2439 2367 6003 3887 9842 4198 908 74 1844 83 2745 26 1943 -123 3862
-559 5590 -1270 675 -278 1409 -642 2010 -998 955 -564 1769 -1179 2557 -1929
97 -93 179 -165 182 -160 11 18 135 518 175 707 193 902 271 1755 250 2720
-47 2089 -677 4128 -1830 5918 -600 931 -1367 1811 -2214 2541 -610 525 -1298
1005 -2015 1405 -216 121 -726 375 -960 478 -1355 599 -2747 933 -4260 1023
-178 11 -905 20 -1060 14z"/>
<path d="M11410 19903 c-748 -32 -1314 -89 -1976 -198 -3219 -531 -6053 -2088
-7820 -4295 -121 -152 -254 -327 -254 -335 0 -4 37 -73 82 -153 1328 -2390
3455 -4251 6023 -5274 561 -223 1156 -409 1735 -542 251 -57 558 -118 796
-156 103 -17 191 -33 196 -36 4 -3 8 -2010 8 -4460 l0 -4454 1775 0 1775 0 0
4459 0 4459 38 6 c1320 203 2479 569 3643 1151 1158 580 2183 1319 3099 2235
588 587 1043 1142 1495 1825 283 427 572 924 555 954 -17 30 -235 308 -350
447 -381 460 -879 958 -1351 1351 -1659 1382 -3774 2343 -6099 2772 -700 129
-1405 208 -2160 241 -198 9 -1033 11 -1210 3z m910 -233 c406 -10 613 -21 960
-51 2135 -181 4161 -807 5880 -1817 1232 -724 2304 -1649 3082 -2662 l66 -85
-40 -70 c-314 -547 -641 -1036 -987 -1476 -1498 -1903 -3570 -3302 -5915
-3994 -525 -154 -1048 -270 -1606 -354 l-245 -36 -3 -4443 -2 -4442 -1540 0
-1540 0 0 4443 0 4444 -127 17 c-1773 244 -3491 901 -4983 1905 -1417 953
-2606 2203 -3477 3656 -66 110 -139 234 -162 276 l-41 76 77 99 c422 542 939
1075 1488 1535 1464 1226 3325 2129 5357 2599 1011 234 2111 368 3143 383 88
1 180 3 205 5 25 1 209 -3 410 -8z"/>
</g>
</svg>
